<?xml version="1.0" encoding="iso-8859-1"?>
<!-- Generator: Adobe Illustrator 19.0.0, SVG Export Plug-In . SVG Version: 6.00 Build 0)  -->
<svg version="1.1" id="Layer_1" xmlns="http://www.w3.org/2000/svg" xmlns:xlink="http://www.w3.org/1999/xlink" x="0px" y="0px"
	 viewBox="0 0 475 475" style="enable-background:new 0 0 475 475;" xml:space="preserve">
<g>
	<rect x="229.5" y="91.487" style="fill:#37495E;" width="16" height="84.275"/>
	<rect x="229.5" y="299.238" style="fill:#37495E;" width="16" height="84.275"/>
	<rect x="299.238" y="229.5" style="fill:#37495E;" width="84.275" height="16"/>
	<rect x="91.487" y="229.5" style="fill:#37495E;" width="84.275" height="16"/>
	
		<rect x="302.952" y="121.912" transform="matrix(0.7071 0.7071 -0.7071 0.7071 207.0756 -171.8274)" style="fill:#37495E;" width="16" height="84.273"/>
	
		<rect x="156.045" y="268.814" transform="matrix(0.7071 0.7071 -0.7071 0.7071 267.9234 -24.9222)" style="fill:#37495E;" width="16" height="84.273"/>
	
		<rect x="268.815" y="302.952" transform="matrix(0.7071 0.7071 -0.7071 0.7071 310.9515 -128.8001)" style="fill:#37495E;" width="84.273" height="16"/>
	
		<rect x="121.912" y="156.049" transform="matrix(0.7071 0.7071 -0.7071 0.7071 164.0487 -67.9513)" style="fill:#37495E;" width="84.273" height="16"/>
	<path style="fill:#3E81C8;" d="M237.5,171.663c-36.63,0-66.324,29.695-66.324,66.324s29.694,66.324,66.324,66.324
		s66.324-29.694,66.324-66.324S274.13,171.663,237.5,171.663z M237.5,267.249c-16.16,0-29.261-13.101-29.261-29.261
		s13.101-29.261,29.261-29.261s29.261,13.1,29.261,29.261S253.66,267.249,237.5,267.249z"/>
	<path style="fill:#F8A805;" d="M261.884,24.384v41.687c-7.969-1.122-16.113-1.697-24.384-1.697s-16.415,0.576-24.384,1.697V24.384
		C213.116,10.914,224.03,0,237.5,0S261.884,10.914,261.884,24.384z"/>
	<path style="fill:#F8A805;" d="M261.884,409.905v40.711c0,13.47-10.914,24.384-24.384,24.384s-24.384-10.914-24.384-24.384v-40.711
		c7.969,1.122,16.113,1.697,24.384,1.697S253.915,411.026,261.884,409.905z"/>
	<path style="fill:#F8A805;" d="M475,237.5c0,13.47-10.914,24.384-24.384,24.384h-41.141c1.083-7.813,1.639-15.791,1.639-23.896
		c0-8.447-0.605-16.747-1.775-24.872h41.277C464.086,213.116,475,224.03,475,237.5z"/>
	<path style="fill:#F8A805;" d="M63.886,237.988c0,8.105,0.556,16.084,1.639,23.896H24.384C10.914,261.884,0,250.97,0,237.5
		s10.914-24.384,24.384-24.384h41.277C64.491,221.241,63.886,229.541,63.886,237.988z"/>
	<path style="fill:#F8A805;" d="M405.437,104.042l-29.349,29.349c-9.851-13.021-21.487-24.618-34.547-34.411l29.417-29.417
		c9.52-9.52,24.959-9.52,34.479,0C414.957,79.082,414.957,94.522,405.437,104.042z"/>
	<path style="fill:#F8A805;" d="M132.902,376.577l-28.861,28.861c-4.76,4.76-10.992,7.14-17.235,7.14s-12.485-2.38-17.244-7.14
		c-9.52-9.52-9.52-24.959,0-34.479l28.929-28.929C108.284,355.089,119.882,366.725,132.902,376.577z"/>
	<path style="fill:#F8A805;" d="M405.437,405.437c-4.76,4.76-11.002,7.14-17.244,7.14c-6.242,0-12.475-2.38-17.235-7.14
		l-28.861-28.861c13.021-9.851,24.618-21.487,34.411-34.547l28.929,28.929C414.957,380.478,414.957,395.918,405.437,405.437z"/>
	<path style="fill:#F8A805;" d="M133.458,98.979c-13.06,9.793-24.696,21.39-34.547,34.411l-29.349-29.349
		c-9.52-9.52-9.52-24.959,0-34.479s24.96-9.52,34.479,0L133.458,98.979z"/>
	<path style="fill:#37495E;" d="M237.5,62.5c-96.65,0-175,78.35-175,175s78.35,175,175,175s175-78.35,175-175
		S334.15,62.5,237.5,62.5z M237.5,377.594c-77.103,0-139.607-62.504-139.607-139.607S160.397,98.381,237.5,98.381
		s139.607,62.504,139.607,139.607S314.603,377.594,237.5,377.594z"/>
</g>
<g>
</g>
<g>
</g>
<g>
</g>
<g>
</g>
<g>
</g>
<g>
</g>
<g>
</g>
<g>
</g>
<g>
</g>
<g>
</g>
<g>
</g>
<g>
</g>
<g>
</g>
<g>
</g>
<g>
</g>
</svg>
